HIERARCHY
ROOT Hips
{
  OFFSET 1.44925e-005 102.336 -0.101585
  CHANNELS 6 Xposition Yposition Zposition Zrotation Xrotation Yrotation
  JOINT LeftUpLeg
  {
    OFFSET 8.9458 -8.66707 0.101652
    CHANNELS 3 Zrotation Xrotation Yrotation
    JOINT LeftLeg
    {
      OFFSET 0 -44.4227 1.3727
      CHANNELS 3 Zrotation Xrotation Yrotation
      JOINT LeftFoot
      {
        OFFSET -0.253549 -42.0924 -1.46059
        CHANNELS 3 Zrotation Xrotation Yrotation
        JOINT LeftToes
        {
          OFFSET -0.04 -4.41509 8.4991
          CHANNELS 3 Zrotation Xrotation Yrotation
          End Site
          {
            OFFSET 0.08 -0.047448 9.77979
          }
        }
      }
    }
  }
  JOINT Spine
  {
    OFFSET 0 11.8905 0
    CHANNELS 3 Zrotation Xrotation Yrotation
    JOINT Spine1
    {
      OFFSET 0 25.6574 0.127663
      CHANNELS 3 Zrotation Xrotation Yrotation
      JOINT RightShoulder
      {
        OFFSET -8.99 -0.362252 -0.22
        CHANNELS 3 Zrotation Xrotation Yrotation
        JOINT RightArm
        {
          OFFSET -10.2827 -0.00338 0.322123
          CHANNELS 3 Zrotation Xrotation Yrotation
          JOINT RightForeArm
          {
            OFFSET -26.364 0.099144 -1.42434
            CHANNELS 3 Zrotation Xrotation Yrotation
            JOINT RightHand
            {
              OFFSET -22.0324 0.085362 1.02216
              CHANNELS 3 Zrotation Xrotation Yrotation
              End Site
              {
                OFFSET -13.3284 -0.6 1.50291
              }
            }
          }
        }
      }
      JOINT LeftShoulder1
      {
        OFFSET 8.99 -0.362252 -0.22
        CHANNELS 3 Zrotation Xrotation Yrotation
        JOINT LeftArm
        {
          OFFSET 10.2827 -0.00337999 0.322123
          CHANNELS 3 Zrotation Xrotation Yrotation
          JOINT LeftForeArm
          {
            OFFSET 26.2597 0.099144 -1.42434
            CHANNELS 3 Zrotation Xrotation Yrotation
            JOINT LeftHand
            {
              OFFSET 22.0902 0.085362 1.02216
              CHANNELS 3 Zrotation Xrotation Yrotation
              End Site
              {
                OFFSET 13.419 -0.6 1.50291
              }
            }
          }
        }
      }
      JOINT Head
      {
        OFFSET 0 8.73416 0.011341
        CHANNELS 3 Zrotation Xrotation Yrotation
        End Site
        {
          OFFSET -0.29 12.7742 2.51395
        }
      }
    }
  }
  JOINT RightUpLeg
  {
    OFFSET -8.9458 -8.66707 0.101652
    CHANNELS 3 Zrotation Xrotation Yrotation
    JOINT RightLeg
    {
      OFFSET 0 -44.4227 1.3727
      CHANNELS 3 Zrotation Xrotation Yrotation
      JOINT RightFoot
      {
        OFFSET 0.253549 -42.0924 -1.46059
        CHANNELS 3 Zrotation Xrotation Yrotation
        JOINT RightToes
        {
          OFFSET 0.04 -4.41509 8.4991
          CHANNELS 3 Zrotation Xrotation Yrotation
          End Site
          {
            OFFSET -0.08 -0.137448 9.77979
          }
        }
      }
    }
  }
}
MOTION
Frames:	8
Frame Time:	0.0333333
39.5132 99.5702 4.07832 -8.8427 -0.857484 -97.3064 -6.51495 4.95188 2.05483 0.891123 22.0041 23.6048 -1.18129 -21.7632 -0.0315404 -1.28949e-009 8.75243e-006 -1.47077e-008 -2.8518 17.5733 -0.0221502 -0.856151 -1.77046 -0.490846 38.3165 1.80011 0.0525108 36.3782 -21.1786 -4.13735 10.6559 43.7532 3.15306 -10.7562 9.42518 0.0646825 -43.6372 3.47311 -3.4111 -25.9356 -12.9139 1.6373 3.06727 29.4646 -30.4603 5.82328 9.61819 -0.917488 0.297988 -14.7009 -0.586503 0.739998 -26.7237 3.54889 -2.03878 64.5782 -15.1097 11.6144 -11.4536 0.192751 0.0462048 0.000530889 0.662642 
35.727 99.4501 3.96835 -8.66021 -0.584935 -96.0584 -5.92728 8.31302 2.90996 0.650128 20.0122 21.8678 -1.09408 -23.0116 -0.0242869 -1.28949e-009 8.75243e-006 -1.47077e-008 -2.61686 17.4875 -0.741286 0.22521 -1.36047 -1.27193 38.2797 1.79825 0.051588 34.6021 -21.5048 -7.62552 9.92635 42.4679 4.33937 -10.8087 9.42744 0.00847049 -43.2953 3.43666 -3.38979 -25.6098 -16.4084 0.32745 5.35174 31.0715 -36.1028 5.82328 9.61819 -0.917488 0.554932 -15.1601 -0.774319 0.330672 -27.8418 1.88594 -1.46771 53.7371 -15.574 11.4521 -12.5465 0.292495 0.0462048 0.000530889 0.662642 
31.887 99.1737 3.80535 -8.3344 -0.756555 -94.7721 -5.81228 11.4785 3.24284 0.560313 18.0084 20.3794 -0.739034 -23.8232 0.0244453 -1.28949e-009 8.75243e-006 -1.47077e-008 -2.68908 17.2047 -1.24343 1.30216 -0.978303 -1.89113 38.2994 1.79492 0.0425822 32.7243 -23.095 -10.7429 9.58624 42.3114 4.36814 -10.5275 9.44884 -0.0915035 -43.0057 3.4138 -3.38746 -25.6304 -18.8969 -1.10245 7.42854 31.9722 -41.0792 5.82328 9.61819 -0.917488 0.657932 -15.3694 -1.24836 -0.573517 -27.697 0.455768 -1.15819 41.0132 -15.8407 11.2612 -13.3918 0.364671 0.0462048 0.000530889 0.662642 
27.8673 98.5916 3.58031 -8.3125 -1.20738 -93.5685 -5.92437 14.5103 3.64274 0.612211 17.1669 18.7148 -1.58988 -25.0705 -0.113798 -1.28949e-009 8.75243e-006 -1.47077e-008 -2.80201 17.2565 -1.53761 1.82255 -0.932741 -2.26463 38.4204 1.79127 0.0237783 30.7688 -25.2502 -13.4333 9.58058 42.9519 3.3812 -10.0791 9.47713 -0.188991 -42.8502 3.40851 -3.40154 -25.8056 -20.5265 -2.52862 8.88012 32.2548 -44.8951 5.82328 9.61819 -0.917488 0.738553 -15.3036 -1.95002 -1.81793 -26.4583 -1.07389 -0.987214 28.6321 -15.7564 11.9506 -14.1321 0.474731 0.0462048 0.000530889 0.662642 
23.5763 97.668 3.25309 -8.73509 -1.64166 -92.3724 -5.78055 17.5096 4.39893 0.734033 17.9002 16.6051 -4.04001 -26.8621 -0.554812 -1.28949e-009 8.75243e-006 -1.47077e-008 -2.79545 17.384 -1.74856 2.07221 -0.678162 -2.51948 38.4797 1.78853 0.0131192 29.2516 -27.1991 -15.2494 9.74227 43.5859 1.77667 -9.61185 9.50904 -0.335678 -42.8077 3.40578 -3.40744 -26.2849 -21.6288 -3.85827 9.55002 32.1599 -47.2 5.82328 9.61819 -0.917488 0.8632 -15.3403 -2.62319 -2.94581 -24.6065 -2.59513 -0.526672 19.5127 -15.5126 12.6562 -15.2061 0.629802 0.0462048 0.000530889 0.662642 
19.0679 96.6572 2.77322 -9.03893 -1.90517 -91.0263 -5.25553 20.1345 4.725 1.05401 19.4665 14.7465 -6.44619 -27.976 -1.03444 -1.28949e-009 8.75243e-006 -1.47077e-008 -2.86012 16.8701 -1.94534 2.84354 0.155135 -2.87574 38.396 1.78682 0.0164109 28.2499 -28.8067 -16.2804 9.88816 43.8266 0.269764 -9.1608 9.54896 -0.621748 -42.8525 3.40818 -3.39915 -27.0543 -22.2346 -4.76788 9.7807 32.0725 -48.1513 5.82328 9.61819 -0.917488 0.896522 -15.4512 -3.15587 -3.57638 -23.065 -2.72341 0.168739 15.4123 -16.5753 12.3699 -16.0002 0.692869 0.0462048 0.000530889 0.662642 
14.3811 95.8052 2.17851 -8.7942 -1.65018 -89.6214 -4.13297 21.9447 3.30229 1.33595 21.5691 14.6195 -8.64445 -27.9078 -1.43982 -1.28949e-009 8.75243e-006 -1.47077e-008 -2.3172 15.6811 -2.23359 3.81715 0.989002 -3.26769 38.37 1.78423 0.0131469 27.4243 -29.8489 -16.9719 9.91712 43.6406 -0.52556 -8.9 9.57939 -0.908539 -43.0671 3.42523 -3.40124 -27.5983 -22.0977 -4.81488 9.8395 32.1646 -48.0144 5.82328 9.61819 -0.917488 0.6905 -15.2435 -3.65701 -3.22077 -22.607 -2.95546 0.247657 16.2149 -17.712 10.5287 -14.3891 0.421294 0.0462048 0.000530889 0.662642 
9.54868 95.0809 1.61374 -8.41775 -0.355687 -88.7015 -1.95937 22.9306 0.718625 1.06726 24.9961 16.1634 -12.3051 -27.0504 -2.0204 -1.28949e-009 8.75243e-006 -1.47077e-008 0.274102 14.6226 -2.69565 3.78637 1.21237 -3.33504 38.4983 1.78123 -0.00485154 26.8372 -30.2337 -17.0286 9.96339 43.4428 -0.834729 -9.02198 9.57487 -0.913561 -43.5242 3.47368 -3.42923 -27.6075 -21.2284 -3.8595 9.50802 32.315 -46.5807 5.82328 9.61819 -0.917488 0.278342 -14.7484 -4.04054 -1.59983 -23.3817 -4.19587 -0.0220606 20.9579 -17.6066 7.69581 -10.0893 -0.0179843 0.0462048 0.000530889 0.662642 
